<svg xmlns="http://www.w3.org/2000/svg" width="360" height="200">
<rect x="0" y="0" width="360" height="200" fill="#fff"/>
<rect x="0" y="0" width="50" height="50" fill="#fff" stroke="#000"/>
<rect x="0" y="50" width="50" height="50" fill="#fff" stroke="#000"/>
<rect x="310" y="100" width="50" height="50" fill="#fff" stroke="#000"/>
<rect x="310" y="150" width="50" height="50" fill="#fff" stroke="#000"/>
<rect x="80" y="0" width="50" height="50" fill="#fff" stroke="#000"/>
<rect x="130" y="0" width="50" height="50" fill="#fff" stroke="#000"/>
<rect x="180" y="0" width="50" height="50" fill="#fff" stroke="#000"/>
<rect x="230" y="0" width="50" height="50" fill="#fff" stroke="#000"/>
<rect x="80" y="50" width="50" height="50" fill="#fff" stroke="#000"/>
<rect x="130" y="50" width="50" height="50" fill="#fff" stroke="#000"/>
<rect x="180" y="50" width="50" height="50" fill="#fff" stroke="#000"/>
<rect x="230" y="50" width="50" height="50" fill="#fff" stroke="#000"/>
<rect x="80" y="100" width="50" height="50" fill="#fff" stroke="#000"/>
<rect x="130" y="100" width="50" height="50" fill="#fff" stroke="#000"/>
<rect x="180" y="100" width="50" height="50" fill="#fff" stroke="#000"/>
<rect x="230" y="100" width="50" height="50" fill="#fff" stroke="#000"/>
<rect x="80" y="150" width="50" height="50" fill="#fff" stroke="#000"/>
<rect x="130" y="150" width="50" height="50" fill="#fff" stroke="#000"/>
<rect x="180" y="150" width="50" height="50" fill="#fff" stroke="#000"/>
<rect x="230" y="150" width="50" height="50" fill="#fff" stroke="#000"/>
</svg>